#!OML:ASF F:\VICON\USERDATA\INSTALL\rory3\rory3.ASF
:FULLY-SPECIFIED
:DEGREES
97
root 0.6345862543157069 17.531550544594744 9.86211951789114 7.417184410095447 -1.6554019388991636 -1.1128868400224432
lfemur -22.12616790261517 9.78075915662946 -19.600658280441397
ltibia 42.39902694420084
lfoot -7.18706601705218 2.7519572279918103
ltoes -12.537641455043588
rfemur -18.803925049589306 -3.060622749359878 17.980416192163997
rtibia 26.491550402659744
rfoot -17.555448115957777 0.5112094571561054
rtoes 9.230610662681865
lowerback -0.19076065945753617 0.09489201054932102 0.042148065459096884
upperback 4.445748655430613 0.10229446281219426 1.450513232173302
thorax 3.1609721227685403 0.030094227217699915 1.1056020358897105
lowerneck -11.87864707340066 -0.5182897259738861 -2.286002524950734
upperneck 29.41736519361063 -0.8854236857862321 1.6982826106707385
head 11.78019980985056 -0.3332849287187174 0.7894199612953151
lclavicle 1.0916331924499897e-15 -2.2181635822583438e-15
lhumerus -20.386683216656387 -2.1302807930963352 84.73351134917256
lradius 25.09300848478931
lwrist 19.70413603544302
lhand -23.725088482409216 -5.855743549642403
lfingers 7.12502
lthumb 2.494345333429969 25.005437358974916
rclavicle 1.0931620180055354e-15 -2.216579116572772e-15
rhumerus -26.042132534918245 -10.97474415125533 -77.60292358338516
rradius 32.5472589945722
rwrist 33.75530931629818
rhand -16.856924693226727 -26.12442081719654
rfingers 7.12502
rthumb 9.543089146957104 -56.05657165187286
98
root 0.6457933797957015 17.530893472742903 9.941731259239758 7.3658470577612 -1.7064650366375433 -1.1270348679031696
lfemur -21.747523560464895 9.74518326042421 -19.560655800915857
ltibia 41.678856888562976
lfoot -7.094925231249233 2.7605708544355227
ltoes -13.773849428085391
rfemur -18.67813963699625 -2.992184092352818 17.953166639016235
rtibia 26.357787402331816
rfoot -17.81560372161747 0.5391549988657931
rtoes 9.372124605345181
lowerback -0.48790653724644906 0.04687837535480506 -0.0070556097360926495
upperback 4.092260257082685 0.02394090817050759 1.3698803046557404
thorax 3.299886950446934 -0.0023533076967687527 1.0533342962347754
lowerneck -11.935853978221441 -0.4965216130596473 -2.292953497397187
upperneck 29.14478377357237 -0.8334153263878834 1.634224221094025
head 11.697021043700346 -0.3153001285706033 0.7908498981136415
lclavicle 1.0921347335303559e-15 -2.2175065970143e-15
lhumerus -21.47878625125929 -0.7457129391226258 84.3860519201844
lradius 24.144270140027814
lwrist 18.78091787759019
lhand -24.26888406601435 -6.235695995030145
lfingers 7.12502
lthumb 2.280043615452177 24.860287905024222
rclavicle 1.0929773137230274e-15 -2.216809547839881e-15
rhumerus -26.109979186400157 -9.832562749694015 -77.66964213383429
rradius 32.98636555968516
rwrist 33.94542609791845
rhand -16.802184585072784 -26.120878522233802
rfingers 7.12502
rthumb 9.724548376537111 -55.96579153256461
99
root 0.6470902112253243 17.505604874041442 9.65074881040222 7.084565513446686 -1.7940141258077968 -1.1848360007862493
lfemur -21.656987958198208 9.617286407553307 -19.432744841246983
ltibia 40.986422075422766
lfoot -7.117175307420808 2.6617803495581853
ltoes -14.580036009748701
rfemur -18.443498483855144 -2.8135343260250814 17.934515563449704
rtibia 26.28386750967674
rfoot -17.87225660176115 0.38157713644418845
rtoes 9.131505125625548
lowerback -0.5481823898623763 0.09421748608283591 -0.05204818862642524
upperback 3.751908418940051 0.09122059803882113 1.3232927400499828
thorax 3.487928187806294 0.022336873108226227 1.0898160737779796
lowerneck -12.001117880555915 -0.4638095740643866 -2.28536620404676
upperneck 28.88940448385749 -0.743998989352207 1.6151038560208595
head 11.539024877448696 -0.2846149663620639 0.8045278226193526
lclavicle 1.0919766860063832e-15 -2.2176281493257658e-15
lhumerus -22.593797836138297 0.32543752253652825 84.06348531613553
lradius 23.558806074653404
lwrist 18.008190629095605
lhand -24.43920582723734 -6.3577493582557825
lfingers 7.12502
lthumb 2.140382180629296 24.928177620510443
rclavicle 1.0925845154523793e-15 -2.2172986345673703e-15
rhumerus -26.48626488579899 -8.734960504830404 -77.67714962620592
rradius 33.218589358794866
rwrist 34.37246162319866
rhand -16.691165951042212 -26.13038363700387
rfingers 7.12502
rthumb 9.876684655680632 -55.883778820816964
100
root 0.6499300493420973 17.524797044372406 9.379859804532467 7.147653167790644 -2.0107025935238294 -1.1864507913391762
lfemur -21.758222151127224 9.53552953177058 -19.43808480959027
ltibia 40.58921402341777
lfoot -6.956154669801067 2.8050498997811273
ltoes -15.112266502204168
rfemur -18.209156941553644 -2.4974454083463637 17.858364714003326
rtibia 25.730720792738037
rfoot -18.09054998205034 0.20775239186820516
rtoes 8.587700763027257
lowerback -0.45304442019437796 0.18489476633554147 -0.1414862155212938
upperback 3.4833575203514533 0.19567170131674824 1.2422707735011231
thorax 3.6139944651922775 0.05868064991629651 1.1002891237430852
lowerneck -12.00121150158288 -0.4162808539972364 -2.2759753269118193
upperneck 28.498792358424744 -0.6256817456132799 1.5475580441859496
head 11.33942717427702 -0.24822977038479216 0.7953831239679329
lclavicle 1.0918199420589625e-15 -2.2176813254432155e-15
lhumerus -23.514229351125135 1.178699547614177 83.80831962350555
lradius 22.90414174934914
lwrist 16.69949620735755
lhand -24.466696797987755 -6.408461045686099
lfingers 7.12502
lthumb 2.259237194463899 25.01152680253653
rclavicle 1.0924450423593589e-15 -2.217467882793876e-15
rhumerus -26.887616301645956 -8.021522166456807 -77.58783398299069
rradius 32.86704352119172
rwrist 34.78090546428746
rhand -16.714808982427506 -26.281753142741316
rfingers 7.12502
rthumb 9.838319834616966 -55.938674945893496
